<svg width="1500" height="1500" viewBox="0 0 1500 1500" fill="none" xmlns="http://www.w3.org/2000/svg">
<rect x="20" y="20" width="1460" height="1460" rx="180" fill="#191D88" stroke="white" stroke-width="40"/>
<path d="M195.941 449.62C203.856 440.789 218.405 444.2 221.568 455.629L233.829 499.921C235.106 504.536 238.511 508.264 242.991 509.954L286.94 526.534C298.998 531.083 300.085 547.716 288.722 553.795L251.561 573.674C246.884 576.176 243.876 580.963 243.65 586.262L241.888 627.656C241.366 639.918 227.142 646.398 217.547 638.744L178.939 607.943C175.418 605.134 170.821 604.056 166.418 605.007L118.143 615.434C106.146 618.026 96.2844 605.898 101.268 594.682L118.09 556.82C120.244 551.972 119.677 546.348 116.6 542.027L92.1501 507.701C84.6734 497.204 93.0408 482.788 105.864 484.074L152.603 488.759C157.367 489.237 162.074 487.411 165.269 483.845L195.941 449.62Z" fill="white"/>
<circle cx="389" cy="1277" r="100" transform="rotate(-90 389 1277)" fill="white"/>
<circle cx="750" cy="1277" r="100" transform="rotate(-90 750 1277)" fill="white"/>
<circle cx="1111" cy="1277" r="100" transform="rotate(-90 1111 1277)" fill="white"/>
<line x1="-0.00439453" y1="1014.44" x2="1500" y2="1014.44" stroke="white" stroke-width="40"/>
<path d="M318.84 750.217L323.032 354.239L395.078 355.002L390.886 750.98L318.84 750.217ZM593.571 753.125L596.989 430.293L435.298 428.582L436.073 355.436L832.05 359.628L831.276 432.774L670.135 431.068L666.717 753.9L593.571 753.125ZM861.29 755.96L865.482 359.982L937.528 360.744L933.336 756.722L861.29 755.96ZM1063.06 758.096C1049.12 757.948 1036.33 754.329 1024.67 747.239C1013.38 740.152 1004.31 730.889 997.461 719.449C990.619 707.643 987.272 694.773 987.42 680.841L989.993 437.754C990.141 423.822 993.758 411.209 1000.84 399.917C1007.93 388.258 1017.2 379.005 1028.64 372.16C1040.45 365.317 1053.32 361.97 1067.25 362.118L1385.68 365.489L1384.91 438.635L1081.87 435.427C1076.01 435.365 1071.22 436.964 1067.52 440.225C1064.19 443.49 1062.49 448.239 1062.42 454.472L1060.18 665.66C1060.12 671.526 1061.72 676.31 1064.98 680.012C1068.61 683.35 1073.36 685.051 1079.23 685.113L1382.26 688.321L1381.49 761.467L1063.06 758.096Z" fill="white"/>
</svg>
